# xmcd CD database file
#
# Track frame offsets:
#	150
#	14807
#	29374
#	44186
#	57674
#	73044
#	87968
#	107807
#	126179
#	142929
#	159299
#	174338
#	192065
#	206981
#	222310
#	236918
#	249113
#	265177
#	283190
#	298133
#
# Disc length: 4177 seconds
#
# Revision: 0
# Processed by: cddbd v1.4PL0 Copyright (c) Steve Scherf et al.
# Submitted via: CDex 1.51
#
DISCID=3d104f14
DTITLE=The Bellamy Brothers - Best of the Best
DYEAR=1995
DGENRE=Country
TTITLE0=The Bellamy Brothers - Let Your Love Flow
TTITLE1=The Bellamy Brothers - If I Said You Had A Beautiful Body (Would You Hold It Against Me)
TTITLE2=The Bellamy Brothers - Dancin' Cowboys
TTITLE3=The Bellamy Brothers - Do You Love As Good As You Look
TTITLE4=The Bellamy Brothers - Redneck Girl
TTITLE5=The Bellamy Brothers - Lovers Live Longer
TTITLE6=The Bellamy Brothers - You Ain't Just Whistlin' Dixie
TTITLE7=The Bellamy Brothers - Old Hippie
TTITLE8=The Bellamy Brothers - Sugar Daddy
TTITLE9=The Bellamy Brothers - Santa Fe
TTITLE10=The Bellamy Brothers - How Can You Be Everywhere At The Same Time
TTITLE11=The Bellamy Brothers - For All The Wrong Reasons
TTITLE12=The Bellamy Brothers - Big Love
TTITLE13=The Bellamy Brothers - I Need More Of You
TTITLE14=The Bellamy Brothers - Get Your Priorities In Line
TTITLE15=The Bellamy Brothers - A Little Naive
TTITLE16=The Bellamy Brothers - Crazy From The Heart
TTITLE17=The Bellamy Brothers - We Don't Wanna Go For It
TTITLE18=The Bellamy Brothers - Can I Come On Home To You
TTITLE19=The Bellamy Brothers - You'll Never Be Sorry
EXTD=YEAR: 1995
EXTT0=
EXTT1=
EXTT2=
EXTT3=
EXTT4=
EXTT5=
EXTT6=
EXTT7=
EXTT8=
EXTT9=
EXTT10=
EXTT11=
EXTT12=
EXTT13=
EXTT14=
EXTT15=
EXTT16=
EXTT17=
EXTT18=
EXTT19=
PLAYORDER=
